<svg width="24" height="24" viewBox="0 0 24 24" fill="none" xmlns="http://www.w3.org/2000/svg">
<rect y="3.42871" width="24" height="17.1429" rx="4" fill="white"/>
<mask id="mask0_478_2472" style="mask-type:alpha" maskUnits="userSpaceOnUse" x="0" y="3" width="24" height="18">
<rect y="3.42871" width="24" height="17.1429" rx="4" fill="white"/>
</mask>
<g mask="url(#mask0_478_2472)">
<path fill-rule="evenodd" clip-rule="evenodd" d="M24 3.42871H0V4.57157H24V3.42871ZM24 5.71443H0V6.85728H24V5.71443ZM0 8.00014H24V9.143H0V8.00014ZM24 10.2859H0V11.4287H24V10.2859ZM0 12.5716H24V13.7144H0V12.5716ZM24 14.8573H0V16.0001H24V14.8573ZM0 17.143H24V18.2859H0V17.143ZM24 19.4287H0V20.5716H24V19.4287Z" fill="#D02F44"/>
<rect y="3.42871" width="10.2857" height="8" fill="#46467F"/>
<g filter="url(#filter0_d_478_2472)">
<path fill-rule="evenodd" clip-rule="evenodd" d="M1.7145 5.71415C2.03009 5.71415 2.28592 5.45831 2.28592 5.14272C2.28592 4.82713 2.03009 4.57129 1.7145 4.57129C1.3989 4.57129 1.14307 4.82713 1.14307 5.14272C1.14307 5.45831 1.3989 5.71415 1.7145 5.71415ZM4.00021 5.71415C4.3158 5.71415 4.57164 5.45831 4.57164 5.14272C4.57164 4.82713 4.3158 4.57129 4.00021 4.57129C3.68462 4.57129 3.42878 4.82713 3.42878 5.14272C3.42878 5.45831 3.68462 5.71415 4.00021 5.71415ZM6.85735 5.14272C6.85735 5.45831 6.60151 5.71415 6.28592 5.71415C5.97033 5.71415 5.7145 5.45831 5.7145 5.14272C5.7145 4.82713 5.97033 4.57129 6.28592 4.57129C6.60151 4.57129 6.85735 4.82713 6.85735 5.14272ZM8.57164 5.71415C8.88723 5.71415 9.14307 5.45831 9.14307 5.14272C9.14307 4.82713 8.88723 4.57129 8.57164 4.57129C8.25605 4.57129 8.00021 4.82713 8.00021 5.14272C8.00021 5.45831 8.25605 5.71415 8.57164 5.71415ZM3.42878 6.28557C3.42878 6.60117 3.17294 6.857 2.85735 6.857C2.54176 6.857 2.28592 6.60117 2.28592 6.28557C2.28592 5.96998 2.54176 5.71415 2.85735 5.71415C3.17294 5.71415 3.42878 5.96998 3.42878 6.28557ZM5.14307 6.857C5.45866 6.857 5.7145 6.60117 5.7145 6.28557C5.7145 5.96998 5.45866 5.71415 5.14307 5.71415C4.82748 5.71415 4.57164 5.96998 4.57164 6.28557C4.57164 6.60117 4.82748 6.857 5.14307 6.857ZM8.00021 6.28557C8.00021 6.60117 7.74437 6.857 7.42878 6.857C7.11319 6.857 6.85735 6.60117 6.85735 6.28557C6.85735 5.96998 7.11319 5.71415 7.42878 5.71415C7.74437 5.71415 8.00021 5.96998 8.00021 6.28557ZM8.57164 7.99986C8.88723 7.99986 9.14307 7.74402 9.14307 7.42843C9.14307 7.11284 8.88723 6.857 8.57164 6.857C8.25605 6.857 8.00021 7.11284 8.00021 7.42843C8.00021 7.74402 8.25605 7.99986 8.57164 7.99986ZM6.85735 7.42843C6.85735 7.74402 6.60151 7.99986 6.28592 7.99986C5.97033 7.99986 5.7145 7.74402 5.7145 7.42843C5.7145 7.11284 5.97033 6.857 6.28592 6.857C6.60151 6.857 6.85735 7.11284 6.85735 7.42843ZM4.00021 7.99986C4.3158 7.99986 4.57164 7.74402 4.57164 7.42843C4.57164 7.11284 4.3158 6.857 4.00021 6.857C3.68462 6.857 3.42878 7.11284 3.42878 7.42843C3.42878 7.74402 3.68462 7.99986 4.00021 7.99986ZM2.28592 7.42843C2.28592 7.74402 2.03009 7.99986 1.7145 7.99986C1.3989 7.99986 1.14307 7.74402 1.14307 7.42843C1.14307 7.11284 1.3989 6.857 1.7145 6.857C2.03009 6.857 2.28592 7.11284 2.28592 7.42843ZM2.85735 9.14272C3.17294 9.14272 3.42878 8.88688 3.42878 8.57129C3.42878 8.2557 3.17294 7.99986 2.85735 7.99986C2.54176 7.99986 2.28592 8.2557 2.28592 8.57129C2.28592 8.88688 2.54176 9.14272 2.85735 9.14272ZM5.7145 8.57129C5.7145 8.88688 5.45866 9.14272 5.14307 9.14272C4.82748 9.14272 4.57164 8.88688 4.57164 8.57129C4.57164 8.2557 4.82748 7.99986 5.14307 7.99986C5.45866 7.99986 5.7145 8.2557 5.7145 8.57129ZM7.42878 9.14272C7.74437 9.14272 8.00021 8.88688 8.00021 8.57129C8.00021 8.2557 7.74437 7.99986 7.42878 7.99986C7.11319 7.99986 6.85735 8.2557 6.85735 8.57129C6.85735 8.88688 7.11319 9.14272 7.42878 9.14272ZM9.14307 9.71415C9.14307 10.0297 8.88723 10.2856 8.57164 10.2856C8.25605 10.2856 8.00021 10.0297 8.00021 9.71415C8.00021 9.39855 8.25605 9.14272 8.57164 9.14272C8.88723 9.14272 9.14307 9.39855 9.14307 9.71415ZM6.28592 10.2856C6.60151 10.2856 6.85735 10.0297 6.85735 9.71415C6.85735 9.39855 6.60151 9.14272 6.28592 9.14272C5.97033 9.14272 5.7145 9.39855 5.7145 9.71415C5.7145 10.0297 5.97033 10.2856 6.28592 10.2856ZM4.57164 9.71415C4.57164 10.0297 4.3158 10.2856 4.00021 10.2856C3.68462 10.2856 3.42878 10.0297 3.42878 9.71415C3.42878 9.39855 3.68462 9.14272 4.00021 9.14272C4.3158 9.14272 4.57164 9.39855 4.57164 9.71415ZM1.7145 10.2856C2.03009 10.2856 2.28592 10.0297 2.28592 9.71415C2.28592 9.39855 2.03009 9.14272 1.7145 9.14272C1.3989 9.14272 1.14307 9.39855 1.14307 9.71415C1.14307 10.0297 1.3989 10.2856 1.7145 10.2856Z" fill="url(#paint0_linear_478_2472)"/>
</g>
</g>
<defs>
<filter id="filter0_d_478_2472" x="1.14307" y="4.57129" width="8" height="7.71387" filterUnits="userSpaceOnUse" color-interpolation-filters="sRGB">
<feFlood flood-opacity="0" result="BackgroundImageFix"/>
<feColorMatrix in="SourceAlpha" type="matrix" values="0 0 0 0 0 0 0 0 0 0 0 0 0 0 0 0 0 0 127 0" result="hardAlpha"/>
<feOffset dy="2"/>
<feColorMatrix type="matrix" values="0 0 0 0 0 0 0 0 0 0 0 0 0 0 0 0 0 0 0.06 0"/>
<feBlend mode="normal" in2="BackgroundImageFix" result="effect1_dropShadow_478_2472"/>
<feBlend mode="normal" in="SourceGraphic" in2="effect1_dropShadow_478_2472" result="shape"/>
</filter>
<linearGradient id="paint0_linear_478_2472" x1="1.14307" y1="4.57129" x2="1.14307" y2="10.2856" gradientUnits="userSpaceOnUse">
<stop stop-color="white"/>
<stop offset="1" stop-color="#F0F0F0"/>
</linearGradient>
</defs>
</svg>
