<svg width="24" height="18" viewBox="0 0 24 18" fill="none" xmlns="http://www.w3.org/2000/svg">
<rect y="0.428711" width="24" height="17.1429" rx="4" fill="white"/>
<mask id="mask0_478_2341" style="mask-type:alpha" maskUnits="userSpaceOnUse" x="0" y="0" width="24" height="18">
<rect y="0.428711" width="24" height="17.1429" rx="4" fill="white"/>
</mask>
<g mask="url(#mask0_478_2341)">
<rect y="0.428711" width="24" height="17.1429" fill="#E92434"/>
<path fill-rule="evenodd" clip-rule="evenodd" d="M16.3034 9.6586L15.2536 10.9314L15.3251 9.28305L13.7901 8.67792L15.3799 8.23655L15.4811 6.58971L16.3922 7.96532L17.9897 7.55265L16.9629 8.8442L17.849 10.236L16.3034 9.6586Z" fill="white"/>
<path fill-rule="evenodd" clip-rule="evenodd" d="M14.9167 5.84247C14.1905 5.31466 13.2775 5.00028 12.2858 5.00028C9.91885 5.00028 8.00007 6.79114 8.00007 9.00028C8.00007 11.2094 9.91885 13.0003 12.2858 13.0003C13.2775 13.0003 14.1905 12.6859 14.9167 12.1581C13.9757 13.3661 12.5072 14.1431 10.8572 14.1431C8.01689 14.1431 5.71436 11.8406 5.71436 9.00028C5.71436 6.15996 8.01689 3.85742 10.8572 3.85742C12.5072 3.85742 13.9757 4.63442 14.9167 5.84247Z" fill="white"/>
</g>
</svg>
